<?xml version="1.0" encoding="utf-8"?>
<!-- Generator: Adobe Illustrator 22.0.1, SVG Export Plug-In . SVG Version: 6.00 Build 0)  -->
<svg version="1.1" id="Layer_1" xmlns="http://www.w3.org/2000/svg" xmlns:xlink="http://www.w3.org/1999/xlink" x="0px" y="0px"
	 viewBox="0 0 1072.4 228.8" style="enable-background:new 0 0 1072.4 228.8;" xml:space="preserve">
<style type="text/css">
	.st0{fill:none;}
	.st1{fill:none;stroke:#FFFFFF;stroke-width:3;}
</style>
<g>
	<rect y="5.8" class="st0" width="1072.8" height="235.1"/>
	<path class="st1" d="M96,215.9c-11.2,0-22-2.2-32.3-6.6c-10.3-4.4-19.4-10.8-27.4-19.1c-7.9-8.3-14.2-18.5-18.8-30.5
		c-4.7-12-7-25.5-7-40.6c0-15.1,2.3-28.7,6.9-41c4.6-12.3,11-22.8,19.1-31.7c8-8.8,17.6-15.5,28.5-20.3c11-4.8,22.7-7.2,35.2-7.2
		c9.3,0,17.7,1.2,25.2,3.5c7.5,2.3,14.7,5.5,21.5,9.7l5.4-9h10.6l1.2,67.2h-10.9c-1.4-6.6-3.5-13.7-6.4-21.3
		c-2.8-7.7-6.1-14.1-9.9-19.5c-4.2-6-9.3-10.7-15.1-14.1c-5.8-3.4-12.5-5.1-20-5.1c-8.6,0-16.6,1.9-23.9,5.7
		c-7.4,3.8-13.8,9.4-19.2,16.9c-5.1,7.2-9.2,16.3-12.1,27.4c-2.9,11.1-4.4,23.4-4.4,37.1c0,12.1,1.5,23.1,4.6,33.2
		c3.1,10.1,7.4,18.9,13.1,26.5c5.7,7.5,12.4,13.4,20.1,17.7c7.7,4.3,16.4,6.4,25.9,6.4c7.2,0,13.8-1.1,19.8-3.4
		c6-2.3,11.2-5.2,15.7-9c4.4-3.9,8.3-8.3,11.7-13.3c3.4-5,6.1-10.4,8.2-16.2l10,4.8c-7.6,18.7-17.7,32-30.3,40
		C128.2,211.9,113.3,215.9,96,215.9z"/>
	<path class="st1" d="M326.7,211.4h-64.4v-8.8c2-0.2,4.3-0.4,6.8-0.5c2.5-0.2,4.5-0.5,6.1-1.1c2.5-0.8,4.3-2.2,5.5-4.2
		s1.8-4.6,1.8-7.8v-67.3c0-9.3-2.2-16.5-6.6-21.5s-9.7-7.6-16-7.6c-4.6,0-8.9,0.7-12.8,2.2c-4,1.5-7.5,3.3-10.6,5.4
		c-3,2.2-5.3,4.4-6.9,6.6c-1.6,2.2-2.8,4.1-3.7,5.6v75.3c0,3,0.6,5.5,1.8,7.4c1.2,1.9,3,3.5,5.5,4.5c1.9,0.9,4,1.6,6,2
		c2.1,0.4,4.4,0.8,6.8,0.9v8.8h-64.1v-8.8c2-0.2,4.1-0.4,6.3-0.6c2.2-0.2,4-0.6,5.5-1c2.5-0.8,4.3-2.2,5.5-4.2
		c1.2-2,1.8-4.6,1.8-7.8V36.5c0-3-0.7-6-2.1-9c-1.4-3-3.2-5.3-5.4-6.8c-1.6-1.1-4.4-2-8.4-2.5c-4-0.5-7.3-0.8-9.8-1V8.7l48.5-2.9
		l1.9,2v91.4h0.5c2.9-2.9,5.6-5.5,8-7.8c2.4-2.3,5.5-4.6,9.4-7.1c3.4-2.1,7.3-3.9,11.9-5.3c4.6-1.4,9.7-2.1,15.4-2.1
		c11.7,0,20.7,3.7,27,11.1c6.3,7.4,9.4,18,9.4,31.9V188c0,3.1,0.6,5.6,1.7,7.5c1.1,1.9,3,3.4,5.6,4.4c2.1,0.8,3.9,1.4,5.5,1.8
		c1.6,0.4,3.8,0.7,6.5,0.9V211.4z"/>
	<path class="st1" d="M466.6,209c-4.2,1.5-7.8,2.7-11,3.7c-3.1,0.9-6.7,1.4-10.7,1.4c-6.9,0-12.4-1.6-16.5-4.8
		c-4.1-3.2-6.8-7.9-7.9-14.1h-0.8c-5.8,6.4-11.9,11.2-18.5,14.6c-6.6,3.4-14.5,5-23.8,5c-9.8,0-17.9-3-24.2-9
		c-6.3-6-9.5-13.9-9.5-23.6c0-5,0.7-9.6,2.1-13.5c1.4-4,3.5-7.6,6.4-10.8c2.2-2.7,5.1-5,8.8-7.1c3.6-2.1,7-3.7,10.2-5
		c4-1.5,12.1-4.3,24.2-8.4c12.2-4.1,20.4-7.3,24.6-9.6v-13.1c0-1.1-0.2-3.4-0.7-6.6c-0.5-3.3-1.5-6.4-3.1-9.3
		c-1.8-3.3-4.3-6.1-7.5-8.6c-3.2-2.4-7.8-3.7-13.7-3.7c-4.1,0-7.9,0.7-11.4,2.1c-3.5,1.4-6,2.8-7.4,4.3c0,1.8,0.4,4.4,1.3,7.8
		c0.8,3.5,1.3,6.6,1.3,9.6c0,3.1-1.4,5.9-4.2,8.5c-2.8,2.6-6.7,3.9-11.6,3.9c-4.4,0-7.7-1.6-9.8-4.7c-2.1-3.1-3.1-6.7-3.1-10.6
		c0-4.1,1.4-8,4.3-11.7c2.9-3.7,6.6-7,11.2-10c4-2.5,8.8-4.6,14.5-6.3c5.7-1.7,11.2-2.6,16.6-2.6c7.4,0,13.9,0.5,19.5,1.5
		c5.5,1,10.6,3.2,15.1,6.6c4.5,3.3,7.9,7.7,10.3,13.3c2.3,5.6,3.5,12.9,3.5,21.7c0,12.7-0.1,23.9-0.4,33.7
		c-0.3,9.8-0.4,20.5-0.4,32.1c0,3.5,0.6,6.2,1.8,8.2c1.2,2,3,3.8,5.5,5.2c1.3,0.8,3.4,1.2,6.3,1.3c2.9,0.1,5.8,0.1,8.8,0.1V209z
		 M420.2,138.9c-7.5,2.2-14.1,4.4-19.8,6.5c-5.7,2.1-10.9,4.8-15.8,8c-4.4,3-7.9,6.6-10.5,10.7c-2.6,4.1-3.9,9-3.9,14.7
		c0,7.4,1.9,12.8,5.8,16.2s8.7,5.2,14.7,5.2c6.3,0,11.8-1.5,16.6-4.6c4.8-3.1,8.8-6.7,12.1-10.8L420.2,138.9z"/>
	<path class="st1" d="M579.9,97.3c0,4.5-1.1,8.5-3.3,12c-2.2,3.5-5.6,5.2-10.2,5.2c-5,0-8.7-1.3-11.4-3.9c-2.6-2.6-3.9-5.4-3.9-8.5
		c0-1.9,0.2-3.7,0.5-5.3c0.3-1.6,0.6-3.2,0.9-4.8c-4.2,0-9,1.7-14.6,5c-5.6,3.4-10.3,8.1-14.2,14.3v76.2c0,3.1,0.6,5.6,1.8,7.6
		c1.2,1.9,3.1,3.4,5.6,4.4c2.2,0.9,5.1,1.6,8.6,2c3.5,0.4,6.5,0.8,9.1,0.9v8.8h-69.1v-8.8c2-0.2,4.1-0.4,6.3-0.5
		c2.2-0.2,4.1-0.5,5.6-1.1c2.5-0.8,4.3-2.2,5.5-4.2s1.8-4.6,1.8-7.8v-80.8c0-2.7-0.6-5.4-1.9-8.1c-1.3-2.7-3.1-4.8-5.4-6.4
		c-1.7-1.1-3.7-1.8-6-2.3c-2.3-0.5-4.8-0.8-7.4-1v-8.8l43.6-2.9l1.9,1.9v18.5h0.7c5.5-7.2,11.6-12.6,18.3-16.3
		c6.7-3.7,12.9-5.6,18.5-5.6s10.1,1.8,13.6,5.4C578.1,86.3,579.9,91.2,579.9,97.3z"/>
	<path class="st1" d="M715.1,209c-4.2,1.5-7.8,2.7-11,3.7c-3.1,0.9-6.7,1.4-10.7,1.4c-6.9,0-12.4-1.6-16.5-4.8
		c-4.1-3.2-6.8-7.9-7.9-14.1h-0.8c-5.8,6.4-11.9,11.2-18.5,14.6c-6.6,3.4-14.5,5-23.8,5c-9.8,0-17.9-3-24.2-9
		c-6.3-6-9.5-13.9-9.5-23.6c0-5,0.7-9.6,2.1-13.5c1.4-4,3.5-7.6,6.4-10.8c2.2-2.7,5.1-5,8.8-7.1c3.6-2.1,7-3.7,10.2-5
		c4-1.5,12.1-4.3,24.2-8.4c12.2-4.1,20.4-7.3,24.6-9.6v-13.1c0-1.1-0.2-3.4-0.7-6.6c-0.5-3.3-1.5-6.4-3.1-9.3
		c-1.8-3.3-4.3-6.1-7.5-8.6c-3.2-2.4-7.8-3.7-13.7-3.7c-4.1,0-7.9,0.7-11.4,2.1c-3.5,1.4-6,2.8-7.4,4.3c0,1.8,0.4,4.4,1.3,7.8
		c0.8,3.5,1.3,6.6,1.3,9.6c0,3.1-1.4,5.9-4.2,8.5c-2.8,2.6-6.7,3.9-11.6,3.9c-4.4,0-7.7-1.6-9.8-4.7c-2.1-3.1-3.1-6.7-3.1-10.6
		c0-4.1,1.4-8,4.3-11.7c2.9-3.7,6.6-7,11.2-10c4-2.5,8.8-4.6,14.5-6.3c5.7-1.7,11.2-2.6,16.6-2.6c7.4,0,13.9,0.5,19.5,1.5
		c5.5,1,10.6,3.2,15.1,6.6c4.5,3.3,7.9,7.7,10.3,13.3c2.3,5.6,3.5,12.9,3.5,21.7c0,12.7-0.1,23.9-0.4,33.7
		c-0.3,9.8-0.4,20.5-0.4,32.1c0,3.5,0.6,6.2,1.8,8.2c1.2,2,3,3.8,5.5,5.2c1.3,0.8,3.4,1.2,6.3,1.3c2.9,0.1,5.8,0.1,8.8,0.1V209z
		 M668.7,138.9c-7.5,2.2-14.1,4.4-19.8,6.5c-5.7,2.1-10.9,4.8-15.8,8c-4.4,3-7.9,6.6-10.5,10.7c-2.6,4.1-3.9,9-3.9,14.7
		c0,7.4,1.9,12.8,5.8,16.2s8.7,5.2,14.7,5.2c6.3,0,11.8-1.5,16.6-4.6c4.8-3.1,8.8-6.7,12.1-10.8L668.7,138.9z"/>
	<path class="st1" d="M809,205.7c-5.8,2.4-11.2,4.4-16.3,6c-5.1,1.6-11.4,2.5-18.9,2.5c-11,0-18.7-2.8-23.2-8.3
		c-4.5-5.5-6.7-13.3-6.7-23.4V93.7h-23.6V81h24.2V40.2h24.2V81h37.6v12.8h-37.3v73.2c0,5.5,0.2,10.1,0.6,13.7
		c0.4,3.7,1.3,6.9,2.9,9.6c1.4,2.6,3.5,4.5,6.4,5.8c2.8,1.3,6.6,2,11.4,2c2.2,0,5.5-0.2,9.8-0.6c4.3-0.4,7.3-0.9,9.1-1.5V205.7z"/>
	<path class="st1" d="M938.3,180.6c-5.5,10.4-12.8,18.8-22,25c-9.2,6.2-19.8,9.3-31.7,9.3c-10.5,0-19.8-1.9-27.7-5.6
		c-7.9-3.7-14.5-8.8-19.6-15.1c-5.1-6.4-9-13.8-11.5-22.3s-3.8-17.5-3.8-27c0-8.5,1.3-16.8,4.1-25c2.7-8.2,6.7-15.6,11.9-22.1
		c5-6.3,11.3-11.4,18.8-15.2c7.5-3.9,15.9-5.8,25.2-5.8c9.6,0,17.8,1.5,24.6,4.5c6.8,3,12.4,7.1,16.6,12.4c4.1,5,7.1,10.8,9.1,17.5
		c2,6.7,3,14,3,21.9v8.8h-86.7c0,8.6,0.8,16.4,2.5,23.4c1.6,7,4.2,13.2,7.8,18.5c3.5,5.1,8,9.2,13.5,12.2c5.6,3,12.2,4.5,19.9,4.5
		c7.9,0,14.7-1.8,20.4-5.5c5.7-3.7,11.2-10.3,16.5-20L938.3,180.6z M909,130.7c0-4.9-0.4-10.2-1.3-15.9c-0.8-5.6-2.2-10.4-4.1-14.2
		c-2-4.1-4.8-7.4-8.4-9.9c-3.5-2.6-8.1-3.8-13.7-3.8c-9.3,0-17,3.9-23.2,11.6c-6.2,7.7-9.5,18.5-10,32.2H909z"/>
	<path class="st1" d="M1053.7,97.3c0,4.5-1.1,8.5-3.3,12c-2.2,3.5-5.6,5.2-10.2,5.2c-5,0-8.7-1.3-11.4-3.9c-2.6-2.6-3.9-5.4-3.9-8.5
		c0-1.9,0.2-3.7,0.5-5.3c0.3-1.6,0.6-3.2,0.9-4.8c-4.2,0-9,1.7-14.6,5c-5.6,3.4-10.3,8.1-14.2,14.3v76.2c0,3.1,0.6,5.6,1.8,7.6
		c1.2,1.9,3.1,3.4,5.6,4.4c2.2,0.9,5.1,1.6,8.6,2c3.5,0.4,6.5,0.8,9.1,0.9v8.8h-69.1v-8.8c2-0.2,4.1-0.4,6.3-0.5
		c2.2-0.2,4.1-0.5,5.6-1.1c2.5-0.8,4.3-2.2,5.5-4.2s1.8-4.6,1.8-7.8v-80.8c0-2.7-0.6-5.4-1.9-8.1c-1.3-2.7-3.1-4.8-5.4-6.4
		c-1.7-1.1-3.7-1.8-6-2.3c-2.3-0.5-4.8-0.8-7.4-1v-8.8l43.6-2.9l1.9,1.9v18.5h0.7c5.5-7.2,11.6-12.6,18.3-16.3
		c6.7-3.7,12.9-5.6,18.5-5.6s10.1,1.8,13.6,5.4C1052,86.3,1053.7,91.2,1053.7,97.3z"/>
</g>
<g>
</g>
<g>
</g>
<g>
</g>
<g>
</g>
<g>
</g>
<g>
</g>
<g>
</g>
<g>
</g>
<g>
</g>
<g>
</g>
<g>
</g>
<g>
</g>
<g>
</g>
<g>
</g>
<g>
</g>
</svg>
